<?xml version="1.0" encoding="UTF-8"?>
<svg id="_レイヤー_2" data-name="レイヤー_2" xmlns="http://www.w3.org/2000/svg" viewBox="0 0 748.1 488.07">
  <defs>
    <style>
      .cls-1 {
        fill: none;
        stroke-width: 4px;
      }

      .cls-1, .cls-2, .cls-3, .cls-4, .cls-5, .cls-6, .cls-7, .cls-8 {
        stroke: #000;
      }

      .cls-1, .cls-4, .cls-7 {
        stroke-linecap: round;
        stroke-linejoin: round;
      }

      .cls-2 {
        opacity: .98;
      }

      .cls-2, .cls-3, .cls-4 {
        fill: #fff;
      }

      .cls-2, .cls-3, .cls-5, .cls-6, .cls-8 {
        stroke-miterlimit: 10;
        stroke-width: 5px;
      }

      .cls-4, .cls-7 {
        stroke-width: 3px;
      }

      .cls-5 {
        fill: #3e6e8c;
      }

      .cls-6 {
        fill: #3bbcd9;
      }

      .cls-7 {
        fill: #c6c6c6;
      }

      .cls-8 {
        fill: #f2c2c2;
      }
    </style>
  </defs>
  <g id="_レイヤー_1-2" data-name="レイヤー_1">
    <g>
      <rect class="cls-3" x="2.5" y="2.5" width="708.34" height="483.07" rx="112.77" ry="112.77"/>
      <line class="cls-2" x1="8.01" y1="85.68" x2="700.01" y2="88.34"/>
      <circle class="cls-6" cx="140.6" cy="49.41" r="23.65"/>
      <circle class="cls-5" cx="196.51" cy="49.41" r="23.65"/>
      <g>
        <line class="cls-1" x1="152.97" y1="149.67" x2="185.47" y2="200.48"/>
        <line class="cls-1" x1="185.47" y1="208.06" x2="152.97" y2="258.87"/>
      </g>
      <g>
        <line class="cls-1" x1="269.33" y1="148.61" x2="236.83" y2="199.41"/>
        <line class="cls-1" x1="236.83" y1="207" x2="269.33" y2="257.8"/>
      </g>
      <g>
        <line class="cls-1" x1="330.01" y1="148.61" x2="362.51" y2="199.41"/>
        <line class="cls-1" x1="362.51" y1="207" x2="330.01" y2="257.8"/>
      </g>
      <line class="cls-1" x1="308.26" y1="150.43" x2="286.3" y2="257.25"/>
      <g>
        <line class="cls-1" x1="205.52" y1="315.87" x2="171.52" y2="365.44"/>
        <line class="cls-1" x1="171.52" y1="372.84" x2="205.52" y2="422.4"/>
      </g>
      <g>
        <line class="cls-1" x1="245.94" y1="315.87" x2="279.94" y2="365.44"/>
        <line class="cls-1" x1="279.94" y1="372.84" x2="245.94" y2="422.4"/>
      </g>
      <g>
        <line class="cls-1" x1="367.66" y1="314.83" x2="333.66" y2="364.4"/>
        <line class="cls-1" x1="333.66" y1="371.8" x2="367.66" y2="421.36"/>
      </g>
      <g>
        <line class="cls-1" x1="430.31" y1="314.83" x2="464.31" y2="364.4"/>
        <line class="cls-1" x1="464.31" y1="371.8" x2="430.31" y2="421.36"/>
      </g>
      <line class="cls-1" x1="408.39" y1="316.61" x2="385.41" y2="420.82"/>
      <g>
        <path class="cls-7" d="M678.06,311.01c2.48,19.72,26.79,29,41.76,15.88,3.91,8.57,6.63,17.8,7.96,27.48-29.29,1.85-33.43,41.65-5.9,49.91-3.27,8.33-7.63,16.1-12.9,23.16-5.74-8.83-18.14-13.38-28.58-9.91-17.52,5.25-23.81,27.96-11.19,41.46-9.01,3.95-18.73,6.6-28.91,7.69,3.25-15.48-9.09-30.61-24.95-30.43-13.18,0-24.02,10.03-25.31,22.87-7.27-3.14-14.09-7.14-20.34-11.86,17.82-21.38-5.78-51.68-31.05-39.15-3.37-7.62-5.81-15.75-7.17-24.24,29.31-2.09,32.96-42.64,4.8-50.12,3.63-9.87,8.79-18.99,15.18-27.1,20.5,15.04,48.12-5.74,38.83-29.85,6.1-2.62,12.52-4.66,19.18-6.02,2.8,29.75,44.36,32.06,50.42,2.73,10.03,3.21,19.35,7.99,27.71,14.03-3.79,2.96-6.72,6.98-8.34,11.61"/>
        <path class="cls-4" d="M668.76,368.72c0,21.61-17.52,39.13-39.13,39.13-51.91-2.06-51.89-76.21,0-78.26,21.61,0,39.13,17.52,39.13,39.13Z"/>
      </g>
      <g>
        <path class="cls-7" d="M707.17,149.02c1.97,15.64,21.25,23,33.12,12.59,3.1,6.8,5.26,14.12,6.31,21.79-23.22,1.47-26.52,33.03-4.68,39.58-2.6,6.61-6.05,12.77-10.23,18.36-4.55-7.01-14.39-10.61-22.66-7.86-13.89,4.17-18.88,22.17-8.87,32.88-7.15,3.13-14.85,5.23-22.93,6.1,2.58-12.27-7.21-24.28-19.79-24.13-10.45,0-19.05,7.95-20.07,18.14-5.77-2.49-11.18-5.66-16.13-9.4,14.13-16.96-4.59-40.99-24.63-31.05-2.67-6.04-4.61-12.49-5.69-19.22,23.25-1.66,26.14-33.82,3.81-39.75,2.88-7.83,6.97-15.06,12.04-21.5,16.26,11.93,38.17-4.55,30.79-23.67,4.84-2.08,9.93-3.69,15.21-4.77,2.22,23.59,35.18,25.43,39.98,2.17,7.95,2.55,15.35,6.34,21.97,11.13-3.01,2.35-5.33,5.54-6.61,9.21"/>
        <path class="cls-4" d="M699.79,194.79c0,17.14-13.89,31.03-31.03,31.03-41.16-1.63-41.15-60.44,0-62.07,17.14,0,31.03,13.89,31.03,31.03Z"/>
      </g>
      <g>
        <line class="cls-1" x1="114.33" y1="149.67" x2="81.83" y2="200.48"/>
        <line class="cls-1" x1="81.83" y1="208.06" x2="114.33" y2="258.87"/>
      </g>
      <circle class="cls-8" cx="81.83" cy="49.41" r="23.65"/>
    </g>
  </g>
</svg>