<?xml version="1.0" encoding="UTF-8"?>
<svg id="_レイヤー_2" data-name="レイヤー_2" xmlns="http://www.w3.org/2000/svg" viewBox="0 0 800.56 488.07">
  <defs>
    <style>
      .cls-1 {
        fill: #fff;
      }

      .cls-1, .cls-2, .cls-3, .cls-4, .cls-5, .cls-6 {
        stroke: #000;
        stroke-miterlimit: 10;
        stroke-width: 5px;
      }

      .cls-2 {
        fill: #c6c6c6;
      }

      .cls-3 {
        fill: #3e6e8c;
      }

      .cls-4 {
        fill: none;
      }

      .cls-5 {
        fill: #3bbcd9;
      }

      .cls-6 {
        fill: #f2c2c2;
      }
    </style>
  </defs>
  <g id="_レイヤー_1-2" data-name="レイヤー_1">
    <g>
      <rect class="cls-1" x="2.5" y="2.5" width="795.56" height="483.07" rx="112.77" ry="112.77"/>
      <line class="cls-1" x1=".5" y1="85.68" x2="798.36" y2="88.34"/>
      <circle class="cls-6" cx="81.83" cy="49.41" r="23.65"/>
      <circle class="cls-5" cx="140.6" cy="49.41" r="23.65"/>
      <circle class="cls-3" cx="196.51" cy="49.41" r="23.65"/>
      <path class="cls-1" d="M591.93,85.99c.8,133,1.6,266,2.41,398.99"/>
      <rect class="cls-2" x="66.94" y="137.16" width="207.85" height="172.01"/>
      <rect class="cls-2" x="350.93" y="261.55" width="199.25" height="172.01"/>
      <path d="M362.41,205.73c7.71-15.28,21.53-25.96,35.74-34.87,3.69-2.31,7.43-4.53,11.19-6.72,4.1-2.39,8.21-4.85,12.61-6.66,7.01-2.88,16.41-4.09,22.59,1.38s5,15.26,3.88,22.83-1.84,15.3,1.42,22.47c1.42,3.12,3.83,5.94,6.93,7.47,4.52,2.23,9.59,1.77,14.27.31,8.7-2.71,16.99-7.21,24.58-12.22,15.32-10.11,28.39-23.18,40.97-36.44,1.53-1.61,3.06-3.23,4.59-4.85,2.2-2.34-1.32-5.88-3.54-3.54-12.47,13.23-25.09,26.64-39.9,37.31-7.3,5.26-15.13,9.88-23.48,13.26-4.14,1.67-8.99,3.6-13.49,2.37-3.1-.84-5.09-3.01-6.45-5.88-3.08-6.49-1.73-14.12-.77-21.01,1.19-8.51,1.84-18.25-4.7-24.91-6.15-6.27-15.89-7.11-23.97-4.86-4.71,1.31-9.12,3.53-13.36,5.92-3.91,2.2-7.77,4.47-11.61,6.79-14.73,8.89-29.4,19.18-38.78,33.94-1.11,1.75-2.13,3.56-3.06,5.41-1.44,2.86,2.89,5.35,4.35,2.47h0Z"/>
      <path d="M58.89,407.9c14.85-12.73,31.32-23.53,48.88-32.15,4.36-2.14,8.78-4.15,13.26-6.01s8.91-3.7,13.49-5.08c1.4-.42,3.77-1.15,4.8.37.79,1.17.56,3.31.39,4.74-.62,5.16-1.63,10.31-2.74,15.39s-2.53,10.58-4.11,15.78c-1.41,4.63-4.26,10.18-1.71,14.9,1.85,3.42,5.82,4.56,9.47,4.29,4.31-.32,8.1-2.05,11.97-3.82,19.87-9.06,39.59-18.44,59.16-28.14s38.97-19.72,58.22-30.05c2.42-1.3,4.84-2.61,7.26-3.92,2.83-1.54.36-5.88-2.47-4.35-19.34,10.48-38.85,20.66-58.53,30.5-19.6,9.81-39.36,19.3-59.27,28.47-2.5,1.15-5,2.3-7.5,3.44-1.83.83-3.46,1.62-5.38,2.18-1.64.47-3.28.79-4.98.72-.66-.03-1.28-.11-2.02-.38-.33-.12-.89-.49-1.19-.82-.27-.29-.69-1.09-.77-1.86-.11-1.14.2-2.3.51-3.38.74-2.57,1.65-5.09,2.41-7.65,1.55-5.21,2.89-10.48,4.01-15.8s2.15-10.52,2.68-15.83c.44-4.42-1.05-9.42-6.08-10.16-2.37-.35-4.7.29-6.92,1.07s-4.64,1.67-6.93,2.55c-4.59,1.77-9.14,3.68-13.62,5.73-17.94,8.2-34.79,18.68-50.15,31.04-1.92,1.54-3.81,3.12-5.68,4.72-1.03.88-.9,2.63,0,3.54,1.02,1.02,2.51.88,3.54,0h0Z"/>
      <line class="cls-4" x1="622.75" y1="152.53" x2="752.28" y2="152.53"/>
      <line class="cls-4" x1="622.75" y1="210.71" x2="752.28" y2="210.71"/>
      <line class="cls-4" x1="622.75" y1="268.9" x2="752.28" y2="268.9"/>
      <line class="cls-4" x1="622.75" y1="333.09" x2="752.28" y2="333.09"/>
    </g>
  </g>
</svg>