<?xml version="1.0" encoding="UTF-8"?>
<svg id="_レイヤー_2" data-name="レイヤー_2" xmlns="http://www.w3.org/2000/svg" viewBox="0 0 631.35 458.78">
  <defs>
    <style>
      .cls-1 {
        fill: #f2c2c2;
        stroke-width: 2px;
      }

      .cls-1, .cls-2, .cls-3, .cls-4 {
        stroke: #000;
        stroke-linecap: round;
        stroke-linejoin: round;
      }

      .cls-2 {
        fill: #3bbcd9;
        stroke-width: 2px;
      }

      .cls-3, .cls-5 {
        fill: #fff;
      }

      .cls-3, .cls-4 {
        stroke-width: 3px;
      }

      .cls-4 {
        fill: #c6c6c6;
      }
    </style>
  </defs>
  <g id="_レイヤー_1-2" data-name="レイヤー_1">
    <g>
      <rect class="cls-4" x="1.5" y="99.54" width="601.54" height="357.74" rx="15" ry="15"/>
      <rect class="cls-3" x="24.94" y="113.48" width="554.65" height="329.86" rx="15" ry="15"/>
      <g>
        <g>
          <path class="cls-5" d="M143.51,394.62c32.42,7.85,65.54,14.37,98.87,13.14,33.33-1.23,67.21-10.8,92.88-32.11,25.66-21.3,41.8-55.46,36.5-88.39-3.42-21.27-18.22-42.65-39.58-45.42-20.25-2.62-39.95,13.36-45.43,33.03-5.48,19.67,1.26,41.26,13.68,57.47,20.72,27.04,57.53,40.67,90.86,33.65,33.33-7.02,61.51-34.34,69.57-67.44"/>
          <path d="M142.87,397.04c27.69,6.7,55.84,12.44,84.4,13.27,25.07.73,50.56-2.53,73.95-11.89,22.24-8.9,42.07-23.14,55.82-42.93,12.98-18.69,20.33-41.97,17.69-64.79-2.38-20.54-14.09-42.33-34.59-49.52-21.02-7.37-43.47,5.92-52.72,24.98-10.62,21.87-3.51,48.41,10.52,67.01,13.3,17.63,33.07,29.88,54.55,34.76s43.77,2.11,63.13-8.22c18.63-9.94,34.04-26.29,42.56-45.65,2.12-4.81,3.84-9.77,5.09-14.87.77-3.12-4.07-4.4-4.84-1.27-4.84,19.64-16.78,37.12-32.78,49.4-16.13,12.38-36.09,18.87-56.42,17.89-20.69-1-41.11-9.31-56.49-23.21-16.26-14.7-27.76-36.87-25.04-59.23,2.38-19.63,18.85-38.35,39.51-38.7,20.6-.35,35.32,18.27,40.5,36.49,5.88,20.68,1.37,43.42-8.64,62.06-10.68,19.9-27.57,35.36-47.55,45.66-20.65,10.65-43.92,15.79-67.03,16.89-27.28,1.29-54.46-2.77-81.05-8.53-6.45-1.4-12.88-2.9-19.29-4.45-3.12-.76-4.41,4.08-1.27,4.84h0Z"/>
        </g>
        <path class="cls-3" d="M463.91,298.37l-3.74-2.04c-5.53-3.01,17.89-59.69,20.9-65.22L602.63,7.48c3.01-5.53,10-7.6,15.53-4.59l5.71,3.1c5.53,3.01,7.6,10,4.59,15.53l-121.57,223.63c-3.01,5.53-37.46,56.22-42.99,53.21Z"/>
      </g>
      <g>
        <g id="_x3C_リピートラジアル_x3E_">
          <ellipse class="cls-1" cx="116.5" cy="296.44" rx="24.65" ry="10.16" transform="translate(-175.5 169.2) rotate(-45)"/>
        </g>
        <g id="_x3C_リピートラジアル_x3E_-2" data-name="_x3C_リピートラジアル_x3E_">
          <ellipse class="cls-1" cx="105.16" cy="269.07" rx="24.65" ry="10.16"/>
        </g>
        <g id="_x3C_リピートラジアル_x3E_-3" data-name="_x3C_リピートラジアル_x3E_">
          <ellipse class="cls-1" cx="116.5" cy="241.69" rx="10.16" ry="24.65" transform="translate(-136.78 153.17) rotate(-45)"/>
        </g>
        <g id="_x3C_リピートラジアル_x3E_-4" data-name="_x3C_リピートラジアル_x3E_">
          <path class="cls-1" d="M154.04,230.35c0,13.61-4.55,24.65-10.16,24.65-5.61,0-10.16-11.04-10.16-24.65s4.55-24.65,10.16-24.65,10.16,11.04,10.16,24.65Z"/>
        </g>
        <g id="_x3C_リピートラジアル_x3E_-5" data-name="_x3C_リピートラジアル_x3E_">
          <ellipse class="cls-1" cx="171.25" cy="241.69" rx="24.65" ry="10.16" transform="translate(-120.74 191.88) rotate(-45)"/>
        </g>
        <g id="_x3C_リピートラジアル_x3E_-6" data-name="_x3C_リピートラジアル_x3E_">
          <ellipse class="cls-1" cx="182.59" cy="269.07" rx="24.65" ry="10.16"/>
        </g>
        <g id="_x3C_リピートラジアル_x3E_-7" data-name="_x3C_リピートラジアル_x3E_">
          <ellipse class="cls-1" cx="171.25" cy="296.44" rx="10.16" ry="24.65" transform="translate(-159.46 207.92) rotate(-45)"/>
        </g>
        <g id="_x3C_リピートラジアル_x3E_-8" data-name="_x3C_リピートラジアル_x3E_">
          <ellipse class="cls-1" cx="143.87" cy="307.78" rx="10.16" ry="24.65"/>
        </g>
      </g>
      <g>
        <g id="_x3C_リピートラジアル_x3E_-9" data-name="_x3C_リピートラジアル_x3E_">
          <ellipse class="cls-2" cx="234.27" cy="224.44" rx="24.65" ry="10.16" transform="translate(-90.09 231.39) rotate(-45)"/>
        </g>
        <g id="_x3C_リピートラジアル_x3E_-10" data-name="_x3C_リピートラジアル_x3E_">
          <ellipse class="cls-2" cx="222.93" cy="197.07" rx="24.65" ry="10.16"/>
        </g>
        <g id="_x3C_リピートラジアル_x3E_-11" data-name="_x3C_リピートラジアル_x3E_">
          <ellipse class="cls-2" cx="234.27" cy="169.69" rx="10.16" ry="24.65" transform="translate(-51.38 215.35) rotate(-45)"/>
        </g>
        <g id="_x3C_リピートラジアル_x3E_-12" data-name="_x3C_リピートラジアル_x3E_">
          <ellipse class="cls-2" cx="261.64" cy="158.35" rx="10.16" ry="24.65"/>
        </g>
        <g id="_x3C_リピートラジアル_x3E_-13" data-name="_x3C_リピートラジアル_x3E_">
          <ellipse class="cls-2" cx="289.02" cy="169.69" rx="24.65" ry="10.16" transform="translate(-35.34 254.07) rotate(-45)"/>
        </g>
        <g id="_x3C_リピートラジアル_x3E_-14" data-name="_x3C_リピートラジアル_x3E_">
          <ellipse class="cls-2" cx="300.36" cy="197.07" rx="24.65" ry="10.16"/>
        </g>
        <g id="_x3C_リピートラジアル_x3E_-15" data-name="_x3C_リピートラジアル_x3E_">
          <ellipse class="cls-2" cx="289.02" cy="224.44" rx="10.16" ry="24.65" transform="translate(-74.05 270.1) rotate(-45)"/>
        </g>
        <g id="_x3C_リピートラジアル_x3E_-16" data-name="_x3C_リピートラジアル_x3E_">
          <ellipse class="cls-2" cx="261.64" cy="235.78" rx="10.16" ry="24.65"/>
        </g>
      </g>
    </g>
  </g>
</svg>